<svg xmlns="http://www.w3.org/2000/svg" xmlns:xlink="http://www.w3.org/1999/xlink" width="88" height="78" viewBox="0 0 88 78"><defs><clipPath id="b"><rect width="88" height="78"/></clipPath></defs><g id="a" clip-path="url(#b)"><rect width="88" height="78" fill="#fff"/><g transform="translate(2 6.5)" opacity="0.168"><circle cx="4.5" cy="4.5" r="4.5" fill="#388af7"/><circle cx="4.5" cy="4.5" r="4.5" transform="translate(19)" fill="#388af7"/><circle cx="4.5" cy="4.5" r="4.5" transform="translate(37)" fill="#388af7"/><circle cx="4.5" cy="4.5" r="4.5" transform="translate(56)" fill="#388af7"/><circle cx="4.5" cy="4.5" r="4.5" transform="translate(0 19)" fill="#388af7"/><circle cx="4.5" cy="4.5" r="4.5" transform="translate(19 19)" fill="#388af7"/><circle cx="4.5" cy="4.5" r="4.5" transform="translate(37 19)" fill="#388af7"/><circle cx="4.5" cy="4.5" r="4.5" transform="translate(56 19)" fill="#388af7"/><circle cx="4.5" cy="4.5" r="4.5" transform="translate(0 37)" fill="#388af7"/><circle cx="4.5" cy="4.5" r="4.5" transform="translate(19 37)" fill="#388af7"/><circle cx="4.5" cy="4.5" r="4.5" transform="translate(37 37)" fill="#388af7"/><circle cx="4.5" cy="4.5" r="4.5" transform="translate(56 37)" fill="#388af7"/><circle cx="4.5" cy="4.5" r="4.5" transform="translate(0 56)" fill="#388af7"/><circle cx="4.5" cy="4.5" r="4.5" transform="translate(19 56)" fill="#388af7"/><circle cx="4.5" cy="4.5" r="4.5" transform="translate(37 56)" fill="#388af7"/><circle cx="4.5" cy="4.5" r="4.5" transform="translate(56 56)" fill="#388af7"/><circle cx="4.5" cy="4.5" r="4.5" transform="translate(75)" fill="#388af7"/><circle cx="4.5" cy="4.5" r="4.5" transform="translate(75 19)" fill="#388af7"/><circle cx="4.5" cy="4.5" r="4.5" transform="translate(75 37)" fill="#388af7"/><circle cx="4.5" cy="4.5" r="4.5" transform="translate(75 56)" fill="#388af7"/></g></g></svg>