<svg xmlns="http://www.w3.org/2000/svg" xmlns:xlink="http://www.w3.org/1999/xlink" width="1920" height="371" viewBox="0 0 1920 371"><defs><style>.a{clip-path:url(#b);}.b{fill:#388af7;opacity:0.04;}.c{fill:#7bdefb;opacity:0.25;}.d{fill:#fff;}</style><clipPath id="b"><rect width="1920" height="371"/></clipPath></defs><g id="a" class="a"><rect class="d" width="1920" height="371"/><path class="b" d="M352.086,499.438c119.294,0,216-96.706,216-216S348.028,0,228.734,0,0,298.292,0,417.586,232.792,499.438,352.086,499.438Z" transform="matrix(0.966, 0.259, -0.259, 0.966, 1902.031, -167.412)"/><path class="c" d="M184.073,261.089A112.922,112.922,0,0,0,297,148.172C297,85.809,181.952,0,119.584,0S0,155.937,0,218.3,121.706,261.089,184.073,261.089Z" transform="matrix(0.602, 0.799, -0.799, 0.602, 1973.55, -81.537)"/></g></svg>