<svg xmlns="http://www.w3.org/2000/svg" xmlns:xlink="http://www.w3.org/1999/xlink" width="1113" height="177" viewBox="0 0 1113 177"><defs><style>.a{clip-path:url(#b);}.b{fill:#f7faff;}.c{opacity:0.168;}.d{fill:#388af7;}.e{fill:#fff;}</style><clipPath id="b"><rect width="1113" height="177"/></clipPath></defs><g id="a" class="a"><rect class="e" width="1113" height="177"/><g transform="translate(-807 -903)"><rect class="b" width="1113" height="109" rx="8" transform="translate(807 971)"/><g class="c" transform="translate(840 938.5)"><circle class="d" cx="4.5" cy="4.5" r="4.5"/><circle class="d" cx="4.5" cy="4.5" r="4.5" transform="translate(19)"/><circle class="d" cx="4.5" cy="4.5" r="4.5" transform="translate(37)"/><circle class="d" cx="4.5" cy="4.5" r="4.5" transform="translate(56)"/><circle class="d" cx="4.5" cy="4.5" r="4.5" transform="translate(0 19)"/><circle class="d" cx="4.5" cy="4.5" r="4.5" transform="translate(19 19)"/><circle class="d" cx="4.5" cy="4.5" r="4.5" transform="translate(37 19)"/><circle class="d" cx="4.5" cy="4.5" r="4.5" transform="translate(56 19)"/><circle class="d" cx="4.5" cy="4.5" r="4.5" transform="translate(0 37)"/><circle class="d" cx="4.5" cy="4.5" r="4.5" transform="translate(19 37)"/><circle class="d" cx="4.5" cy="4.5" r="4.5" transform="translate(37 37)"/><circle class="d" cx="4.5" cy="4.5" r="4.5" transform="translate(56 37)"/><circle class="d" cx="4.5" cy="4.5" r="4.5" transform="translate(0 56)"/><circle class="d" cx="4.5" cy="4.5" r="4.5" transform="translate(19 56)"/><circle class="d" cx="4.5" cy="4.5" r="4.5" transform="translate(37 56)"/><circle class="d" cx="4.5" cy="4.5" r="4.5" transform="translate(56 56)"/><circle class="d" cx="4.5" cy="4.5" r="4.5" transform="translate(75)"/><circle class="d" cx="4.5" cy="4.5" r="4.5" transform="translate(75 19)"/><circle class="d" cx="4.5" cy="4.5" r="4.5" transform="translate(75 37)"/><circle class="d" cx="4.5" cy="4.5" r="4.5" transform="translate(75 56)"/></g></g></g></svg>